<?xml version="1.0" encoding="utf-8" ?>
<svg xmlns="http://www.w3.org/2000/svg" xmlns:xlink="http://www.w3.org/1999/xlink" width="512" height="512">
	<path fill="#2D2D2D" transform="scale(0.8 0.8)" d="M445.971 394.773C461.294 394.173 458.691 406.124 460.463 417.275C460.866 419.812 461.919 421.906 462.581 424.333C464.26 430.488 456.888 435.165 451.816 436.184C442.277 436.695 442.552 429.432 442.221 421.887C442.026 417.446 437.409 419.388 435.282 416.514C437.748 406.201 430.6 397.026 445.971 394.773Z"/>
	<path fill="#2D2D2D" transform="scale(0.8 0.8)" d="M330.707 383.258C339.076 382.523 347.881 384.826 356.242 385.577L388.205 387.362C396.914 388.185 404.012 390.123 412.292 393.074L428.24 398.562L426.406 402.165C424.618 405.849 422.873 411.154 424.311 415.197L424.411 415.454C418.341 415.549 412.891 416.459 406.946 417.506C395.604 419.406 379.665 421.126 367.881 421.624L343.605 421.765C333.632 421.775 323.108 422.886 314.009 417.873L317.703 407.446C319.301 403.449 326.836 384.916 330.707 383.258Z"/>
	<path fill="#2D2D2D" transform="scale(0.8 0.8)" d="M227.524 397.656C232.829 395.391 257.551 402.273 262.654 406.863C255.393 435.097 231.199 465.76 209.073 484.848C204.777 488.554 193.031 494.766 190.891 499.704C190.438 500.747 189.228 502.211 188.167 502.656L188.125 501.3C187.294 502.063 187.331 501.982 187.297 503.118L187.274 503.973C186.786 510.379 184.96 517.769 179.868 522.029C167.925 527.15 164.496 516.058 160.62 516.535C150.024 517.838 143.883 504.109 145.826 496.618C147.354 490.726 153.53 491.394 158.33 491.354C165.557 491.292 173.476 491.047 180.496 492.917C181.047 491.398 180.909 489.255 181.24 487.595C184.437 471.588 207.271 426.809 218.819 412.83C220.871 410.348 223.386 407.851 225.031 405.084C226.406 402.773 226.117 399.899 227.524 397.656Z"/>
	<path fill="#2D2D2D" transform="scale(0.8 0.8)" d="M268.844 98.5538C272.865 97.8397 294.354 98.5166 298.792 98.7693C320.901 100.028 338.175 118.858 325.908 140.311C323.426 144.652 322.744 145.108 317.774 143.907C317.23 150.917 319.291 154.482 317.224 161.719C315.428 168.005 314.444 170.786 310.768 176.488L311.765 177.911C316.006 184.958 303.72 198.335 297.716 201.453C296.584 201.041 295.581 200.635 294.55 200.003L293.737 199.489C289.226 196.255 283.825 190.426 281.022 185.476C279.958 183.598 279.401 181.5 278.059 179.767C275.234 176.118 270.749 174.209 268.038 170.146C262.809 162.312 260.691 145.081 261.894 135.781C263.004 127.21 265.623 132.593 261.677 125.438C260.522 123.344 259.763 121.076 258.892 118.854C265.34 120.909 267.848 118.954 273.494 116.188C279.564 113.214 285.263 112.268 292.007 112.669L292.275 112.686C288.743 109.706 281.948 109.201 277.656 107.793C272.033 105.948 267.689 102.585 262.698 99.5456C263.542 98.7963 267.602 98.6814 268.844 98.5538Z"/>
	<path fill="#2D2D2D" transform="scale(0.8 0.8)" d="M387.065 462.928L387.196 462.881C395.767 461.744 406.277 465.677 413.065 470.768C431.705 484.747 435.04 511.846 420.951 530.312L420.292 531.191C413.263 540.336 403.104 544.78 391.953 546.229C372.414 547.34 351.431 533.777 348.929 513.425C345.766 487.688 360.646 465.867 387.065 462.928ZM386.571 478.813C374.329 481.995 366.451 490.785 368.372 503.75L368.422 504.12C370.182 516.394 382.82 522.619 394.145 521.476C405.626 519.366 415.127 508.213 412.545 496.19L412.174 494.769C409.095 483.024 397.866 477.902 386.571 478.813Z"/>
	<path fill="#2D2D2D" transform="scale(0.8 0.8)" d="M362.961 303.906L363.573 303.816C364.669 305.555 364.734 308.443 364.903 310.469C366.202 326.076 365.383 360.23 350.471 370.133L334.305 361.2L300.383 399.835C295.345 405.221 292.016 409.094 284.778 411.436C278.157 410.101 269.29 402.276 264.284 398.067C258.21 394.359 246.126 380.453 239.999 374.863C242.603 364.783 259.197 350.873 266.719 343.351C269.97 340.1 273.186 335.713 277.041 333.233L277.393 333.011C280.086 331.245 281.443 331.874 281.859 328.419C282.3 324.756 283.074 322.707 286.966 321.805L316.146 316.53C331.939 313.638 347.97 309.687 362.961 303.906Z"/>
	<path fill="#2D2D2D" transform="scale(0.8 0.8)" d="M330.135 176.406C336.857 174.479 356.401 180.988 361.907 184.077C364.718 185.654 366.78 188.132 369.811 189.395C373.536 190.947 377.66 191.788 381.477 193.178C392.66 197.248 403.587 202.079 414.368 207.106C419.77 209.624 430.224 212.514 428.569 220.528L428.311 221.855C427.637 225.249 426.188 228.623 425.013 231.875L410.482 271.817C408.046 279.253 405.19 289.458 394.071 286.278C388.741 284.754 385.775 277.97 386.678 272.841C387.583 267.702 390.708 262.068 392.551 257.124C396.354 246.926 399.967 236.575 402.749 226.054L372.188 213.906C364.898 211.194 364.877 216.01 358.537 220.469C355.948 222.29 352.892 221.892 350.156 223.145C347.993 227.001 355.075 246.983 356.34 251.25L363.557 277.647C364.922 283.276 366.41 288.444 366.54 294.281C344.984 305.051 309.298 313.145 285.091 314.075L285.124 288.054C285.865 287.297 286.695 286.766 287.579 286.189C296.158 279.731 278.6 284.841 289.023 275.894C291.552 273.723 294.836 271.026 295.327 267.515L295.614 265.469C296.104 254.928 283.331 253.064 279.062 261.778L278.903 259.844C277.837 253.198 282.882 246.964 280.308 240.286C272.845 235.164 270.565 241.9 269.427 247.815L267.467 256.919C265.718 264.115 263.212 271.111 260.803 278.105L257.241 288.033C255.82 291.841 253.015 300.495 247.557 299.555L247.188 299.486C236.112 297.592 213.587 286.567 202.886 280.059C199.248 277.847 195.998 275.034 192.404 272.744C186.935 269.258 179.907 267.199 178.652 259.914C177.393 252.61 180.138 245.601 188.196 244.492C195.684 243.461 194.094 249.043 197.998 251.784L198.369 252.031C201.415 254.141 204.952 255.584 208.335 257.08L228.065 265.352C230.707 266.488 237.835 270.357 239.817 270.813C246.231 253.03 250.186 230.289 258.267 214.918C263.28 205.383 266.228 205.317 274.728 199.406C280.028 210.695 293.052 216.199 304.698 218.001C309.607 213.205 332.493 184.025 330.135 176.406Z"/>
</svg>
